<svg xmlns="http://www.w3.org/2000/svg" viewBox="0 0 1251.61 226.59">
  <path fill="#3b82f6" d="M310.62,166.9H289.9L327.64,59.69h24L389.39,166.9H368.67L340,81.68h-.84Zm.68-42h56.53v15.61H311.3Z"/>
  <path fill="#3b82f6" d="M408.1,166.9V59.69h40.21q12.35,0,20.75,4.3a29.56,29.56,0,0,1,12.73,12,36.19,36.19,0,0,1,4.31,18,35.17,35.17,0,0,1-4.37,17.88,29,29,0,0,1-12.85,11.67q-8.49,4.11-20.83,4.11H419.41V111.52h26a29.8,29.8,0,0,0,11.83-2,14,14,0,0,0,6.83-5.91A19.08,19.08,0,0,0,466.32,94a19.73,19.73,0,0,0-2.26-9.76A14.47,14.47,0,0,0,457.2,78c-3.06-1.42-7-2.12-11.88-2.12h-17.8v91Zm55.39-48.58L490,166.9H468.36l-26.07-48.58Z"/>
  <path fill="#3b82f6" d="M600.33,95.86H580.76a24.89,24.89,0,0,0-3.1-8.55,22.83,22.83,0,0,0-5.6-6.36,24,24,0,0,0-7.61-4,31,31,0,0,0-9.19-1.33A27.92,27.92,0,0,0,539.76,80a29.22,29.22,0,0,0-10.58,12.78q-3.79,8.39-3.81,20.49,0,12.3,3.84,20.7a28.69,28.69,0,0,0,10.58,12.67,28.13,28.13,0,0,0,15.42,4.27,30.75,30.75,0,0,0,9-1.29,24.62,24.62,0,0,0,7.58-3.79,23.11,23.11,0,0,0,5.71-6.18,23.58,23.58,0,0,0,3.23-8.37l19.57.1a42.47,42.47,0,0,1-14.24,26.15,43.18,43.18,0,0,1-13.71,7.95,50.68,50.68,0,0,1-17.44,2.85,48.66,48.66,0,0,1-25.23-6.54,45.7,45.7,0,0,1-17.48-18.9q-6.37-12.34-6.39-29.62t6.45-29.65a46,46,0,0,1,17.52-18.88,48.57,48.57,0,0,1,25.13-6.54,53.56,53.56,0,0,1,16.66,2.51,43,43,0,0,1,13.71,7.35,40.12,40.12,0,0,1,9.91,11.84A44.48,44.48,0,0,1,600.33,95.86Z"/>
  <path fill="#3b82f6" d="M622.75,166.9V59.69h19.42v45.39h49.68V59.69h19.48V166.9H691.85V121.36H642.17V166.9Z"/>
  <path fill="#3b82f6" d="M737,166.9V59.69h41q11.63,0,19.34,3.64A26.26,26.26,0,0,1,809,73.25a26.77,26.77,0,0,1,3.84,14.24,23.16,23.16,0,0,1-2.51,11.17,21,21,0,0,1-6.76,7.52,28.23,28.23,0,0,1-9.47,4.13v1a23.49,23.49,0,0,1,11,3.48,24.66,24.66,0,0,1,8.62,8.93A27.13,27.13,0,0,1,817,137.69a28.29,28.29,0,0,1-4,14.94,27.44,27.44,0,0,1-12.15,10.45q-8.12,3.81-20.41,3.82Zm19.42-61.61h19.21a21.39,21.39,0,0,0,9.06-1.86A15.31,15.31,0,0,0,791,98.15,14.19,14.19,0,0,0,793.37,90,13.34,13.34,0,0,0,789,79.74c-2.91-2.69-7.24-4-13-4H756.41Zm0,45.38H777.3q10.58,0,15.26-4a13.18,13.18,0,0,0,4.69-10.45,16.1,16.1,0,0,0-2.36-8.61,16.46,16.46,0,0,0-6.7-6.07,22.4,22.4,0,0,0-10.36-2.23H756.41Z"/>
  <path fill="#3b82f6" d="M934.24,113.3q0,17.33-6.47,29.65a46.15,46.15,0,0,1-17.58,18.87,51.76,51.76,0,0,1-50.42,0,46.29,46.29,0,0,1-17.59-18.89q-6.46-12.33-6.46-29.6t6.46-29.65a46.2,46.2,0,0,1,17.59-18.88,51.86,51.86,0,0,1,50.42,0,46.18,46.18,0,0,1,17.58,18.88Q934.24,96,934.24,113.3Zm-19.53,0q0-12.19-3.79-20.6A28.79,28.79,0,0,0,900.42,80a29.77,29.77,0,0,0-30.89,0A28.62,28.62,0,0,0,859.05,92.7q-3.81,8.4-3.8,20.6t3.8,20.6a28.68,28.68,0,0,0,10.48,12.72,29.77,29.77,0,0,0,30.89,0,28.85,28.85,0,0,0,10.5-12.72Q914.7,125.5,914.71,113.3Z"/>
  <path fill="#3b82f6" d="M965.3,166.9H944.58L982.32,59.69h24l37.78,107.21h-20.72L994.72,81.68h-.84Zm.68-42h56.53v15.61H966Z"/>
  <path fill="#3b82f6" d="M1062.79,166.9V59.69H1103q12.35,0,20.76,4.3a29.59,29.59,0,0,1,12.72,12,36.19,36.19,0,0,1,4.31,18,35.17,35.17,0,0,1-4.37,17.88,29.07,29.07,0,0,1-12.84,11.67q-8.5,4.11-20.83,4.11H1074.1V111.52h26a29.8,29.8,0,0,0,11.83-2,14.07,14.07,0,0,0,6.84-5.91A19.19,19.19,0,0,0,1121,94a19.83,19.83,0,0,0-2.25-9.76,14.54,14.54,0,0,0-6.87-6.18c-3.06-1.42-7-2.12-11.88-2.12h-17.79v91Zm55.39-48.58,26.53,48.58H1123L1097,118.32Z"/>
  <path fill="#3b82f6" d="M1199.57,166.9h-36.32V59.69h37.06q16,0,27.45,6.41a43.27,43.27,0,0,1,17.67,18.41q6.16,12,6.18,28.68t-6.2,28.79a43.24,43.24,0,0,1-17.86,18.48Q1215.91,166.9,1199.57,166.9Zm-16.91-16.81h16c7.48,0,13.7-1.36,18.7-4.1a26,26,0,0,0,11.25-12.3q3.75-8.19,3.77-20.5t-3.77-20.44a25.83,25.83,0,0,0-11.13-12.2q-7.35-4-18.24-4h-16.55Z"/><polygon fill="#3b82f6" points="29.66 0 0 0 0 29.66 0 196.93 0 226.59 29.66 226.59 35.34 226.59 69.72 226.59 75.72 209.55 129.54 56.66 113.82 56.66 98.09 56.66 48.72 196.93 29.66 196.93 29.66 29.66 196.93 29.66 196.93 196.93 178.91 196.93 155.18 129.51 123.74 129.51 118.52 144.34 113.3 159.18 134.18 159.18 149.38 202.37 149.38 202.37 157.91 226.59 159.44 226.59 184.27 226.59 196.93 226.59 226.59 226.59 226.59 196.93 226.59 29.66 226.59 0 196.93 0 29.66 0"/>
</svg>